<svg xmlns="http://www.w3.org/2000/svg" xmlns:xlink="http://www.w3.org/1999/xlink" width="500" zoomAndPan="magnify" viewBox="0 0 375 374.999991" height="500" preserveAspectRatio="xMidYMid meet" version="1.0"><defs><g/><clipPath id="1e5157dc42"><path d="M 106.195312 106.195312 L 268.972656 106.195312 L 268.972656 264.640625 L 106.195312 264.640625 Z M 106.195312 106.195312 " clip-rule="nonzero"/></clipPath><clipPath id="0fa1374484"><path d="M 123.445312 106.195312 L 251.554688 106.195312 C 261.082031 106.195312 268.804688 113.917969 268.804688 123.445312 L 268.804688 247.390625 C 268.804688 256.917969 261.082031 264.640625 251.554688 264.640625 L 123.445312 264.640625 C 113.917969 264.640625 106.195312 256.917969 106.195312 247.390625 L 106.195312 123.445312 C 106.195312 113.917969 113.917969 106.195312 123.445312 106.195312 Z M 123.445312 106.195312 " clip-rule="nonzero"/></clipPath><clipPath id="f75b6a7a64"><path d="M 106.195312 106.199219 L 268.792969 106.199219 L 268.792969 264.445312 L 106.195312 264.445312 Z M 106.195312 106.199219 " clip-rule="nonzero"/></clipPath><clipPath id="5331a51b10"><path d="M 123.445312 106.199219 L 251.542969 106.199219 C 261.070312 106.199219 268.792969 113.921875 268.792969 123.445312 L 268.792969 247.382812 C 268.792969 256.910156 261.070312 264.632812 251.542969 264.632812 L 123.445312 264.632812 C 113.917969 264.632812 106.195312 256.910156 106.195312 247.382812 L 106.195312 123.445312 C 106.195312 113.921875 113.917969 106.199219 123.445312 106.199219 Z M 123.445312 106.199219 " clip-rule="nonzero"/></clipPath><clipPath id="a355b04efe"><path d="M 111.675781 127.5 L 263.324219 127.5 L 263.324219 145.714844 L 111.675781 145.714844 Z M 111.675781 127.5 " clip-rule="nonzero"/></clipPath><clipPath id="0de6a0897b"><path d="M 111.675781 145.714844 L 263.324219 145.714844 L 263.324219 163.929688 L 111.675781 163.929688 Z M 111.675781 145.714844 " clip-rule="nonzero"/></clipPath><clipPath id="1320fe167b"><path d="M 111.675781 163.929688 L 263.324219 163.929688 L 263.324219 182.144531 L 111.675781 182.144531 Z M 111.675781 163.929688 " clip-rule="nonzero"/></clipPath><clipPath id="d296951f29"><path d="M 111.675781 182.144531 L 263.324219 182.144531 L 263.324219 200.359375 L 111.675781 200.359375 Z M 111.675781 182.144531 " clip-rule="nonzero"/></clipPath></defs><g clip-path="url(#1e5157dc42)"><g clip-path="url(#0fa1374484)"><path fill="#000000" d="M 106.195312 106.195312 L 268.972656 106.195312 L 268.972656 264.640625 L 106.195312 264.640625 Z M 106.195312 106.195312 " fill-opacity="1" fill-rule="nonzero"/></g></g><g clip-path="url(#f75b6a7a64)"><g clip-path="url(#5331a51b10)"><path stroke-linecap="butt" transform="matrix(0.75, 0, 0, 0.75, 106.196124, 106.197312)" fill="none" stroke-linejoin="miter" d="M 22.99892 0.00254203 L 193.795806 0.00254203 C 206.498932 0.00254203 216.795807 10.294209 216.795807 22.997335 L 216.795807 188.247346 C 216.795807 200.950472 206.498932 211.247348 193.795806 211.247348 L 22.99892 211.247348 C 10.295794 211.247348 -0.0010819 200.950472 -0.0010819 188.247346 L -0.0010819 22.997335 C -0.0010819 10.294209 10.295794 0.00254203 22.99892 0.00254203 Z M 22.99892 0.00254203 " stroke="#e7d4a7" stroke-width="14" stroke-opacity="1" stroke-miterlimit="4"/></g></g><g clip-path="url(#a355b04efe)"><path fill="#c23127" d="M 111.675781 127.5 L 263.296875 127.5 L 263.296875 145.714844 L 111.675781 145.714844 Z M 111.675781 127.5 " fill-opacity="1" fill-rule="nonzero"/></g><g clip-path="url(#0de6a0897b)"><path fill="#d3593a" d="M 111.675781 145.714844 L 263.296875 145.714844 L 263.296875 163.929688 L 111.675781 163.929688 Z M 111.675781 145.714844 " fill-opacity="1" fill-rule="nonzero"/></g><g clip-path="url(#1320fe167b)"><path fill="#df9c6a" d="M 111.675781 163.929688 L 263.296875 163.929688 L 263.296875 182.144531 L 111.675781 182.144531 Z M 111.675781 163.929688 " fill-opacity="1" fill-rule="nonzero"/></g><g clip-path="url(#d296951f29)"><path fill="#e8d3aa" d="M 111.675781 182.144531 L 263.296875 182.144531 L 263.296875 200.359375 L 111.675781 200.359375 Z M 111.675781 182.144531 " fill-opacity="1" fill-rule="nonzero"/></g><g fill="#c23127" fill-opacity="1"><g transform="translate(115.199375, 248.059466)"><g><path d="M 12.71875 -17.15625 L 1.125 -37.421875 L 22.078125 -37.421875 L 29.78125 -22.140625 L 37.265625 -37.421875 L 41.390625 -37.421875 L 31.4375 -17.15625 L 31.4375 0 L 12.71875 0 Z M 12.71875 -17.15625 "/></g></g></g><g fill="#d3593a" fill-opacity="1"><g transform="translate(160.344793, 248.059466)"><g><path d="M 15.1875 -34.28125 L 1.125 -34.28125 L 1.125 -37.421875 L 48.015625 -37.421875 L 48.015625 -34.28125 L 33.90625 -34.28125 L 33.90625 0 L 15.1875 0 Z M 15.1875 -34.28125 "/></g></g></g><g fill="#e8d3aa" fill-opacity="1"><g transform="translate(212.069112, 248.059466)"><g><path d="M 1.5 -37.421875 L 29.625 -37.421875 C 34.71875 -37.421875 39.117188 -35.601562 42.828125 -31.96875 C 46.492188 -28.300781 48.328125 -23.898438 48.328125 -18.765625 C 48.328125 -13.566406 46.492188 -9.128906 42.828125 -5.453125 C 39.160156 -1.816406 34.757812 0 29.625 0 L 1.5 0 Z M 23.421875 -3.09375 C 25.453125 -3.09375 26.910156 -3.753906 27.796875 -5.078125 C 28.660156 -6.359375 29.195312 -8.175781 29.40625 -10.53125 C 29.582031 -12.0625 29.671875 -14.804688 29.671875 -18.765625 C 29.671875 -21.828125 29.566406 -24.75 29.359375 -27.53125 C 29.140625 -29.632812 28.601562 -31.238281 27.75 -32.34375 C 26.851562 -33.664062 25.410156 -34.328125 23.421875 -34.328125 L 20.21875 -34.328125 L 20.21875 -3.09375 Z M 23.421875 -3.09375 "/></g></g></g></svg>